<!-- icono SVG -->

<svg version="1.1" id="Capa_1" xmlns="http://www.w3.org/2000/svg"
    xmlns:xlink="http://www.w3.org/1999/xlink" x="0px" y="0px" viewBox="0 0 28.953 28.953"
    style="enable-background:new 0 0 28.953 28.953;" xml:space="preserve">
    <g>
        <path
            d="M6.178,12.278v2.391c-4.573-0.016-4.348-3.878-4.348-3.878L1.805,6.594H0v4.124c0,6.415,6.178,6.176,6.178,6.176v-0.153 v1.806c0,0-0.227,3.812,3.725,3.812c4.682,0,11.061,0,11.061,0V8.89c0,0-6.508,0-11.201,0C6.164,8.89,6.178,12.278,6.178,12.278z M17.564,11.249h1.693v8.968h-1.693V11.249z" />
        <path
            d="M21.801,20.469h7.152v-2.447h-7.152V20.469z M27.707,18.563c0.375,0,0.684,0.306,0.684,0.682 c0,0.377-0.309,0.684-0.684,0.684c-0.377,0-0.684-0.307-0.684-0.684C27.023,18.869,27.33,18.563,27.707,18.563z" />
        <path
            d="M21.801,11.249v2.448h7.152v-2.448H21.801z M27.707,13.226c-0.377,0-0.684-0.306-0.684-0.683 c0-0.376,0.307-0.682,0.684-0.682c0.375,0,0.684,0.306,0.684,0.682C28.391,12.92,28.082,13.226,27.707,13.226z" />
    </g>
</svg>